HIERARCHY
ROOT root
{
	OFFSET 0.000000 0.000000 0.000000
	CHANNELS 6 Xposition Yposition Zposition Zrotation Yrotation Xrotation
	JOINT lhip
	{
		OFFSET 0.058581 -0.082280 -0.017664
		CHANNELS 3 Zrotation Yrotation Xrotation
		JOINT lknee
		{
			OFFSET 0.043451 -0.386469 0.008037
			CHANNELS 3 Zrotation Yrotation Xrotation
			JOINT lankle
			{
				OFFSET -0.014790 -0.426874 -0.037428
				CHANNELS 3 Zrotation Yrotation Xrotation
				JOINT ltoe
				{
					OFFSET 0.041054 -0.060286 0.122042
					CHANNELS 3 Zrotation Yrotation Xrotation
					End Site
					{
						OFFSET 0.000000 0.000000 0.000000
					}
				}
			}
		}
	}
	JOINT rhip
	{
		OFFSET -0.060310 -0.090513 -0.013543
		CHANNELS 3 Zrotation Yrotation Xrotation
		JOINT rknee
		{
			OFFSET -0.043257 -0.383688 -0.004843
			CHANNELS 3 Zrotation Yrotation Xrotation
			JOINT rankle
			{
				OFFSET 0.019056 -0.420046 -0.034562
				CHANNELS 3 Zrotation Yrotation Xrotation
				JOINT rtoe
				{
					OFFSET -0.034840 -0.062106 0.130323
					CHANNELS 3 Zrotation Yrotation Xrotation
					End Site
					{
						OFFSET 0.000000 0.000000 0.000000
					}
				}
			}
		}
	}
	JOINT lowerback
	{
		OFFSET 0.004439 0.124404 -0.038385
		CHANNELS 3 Zrotation Yrotation Xrotation
		JOINT upperback
		{
			OFFSET 0.004488 0.137956 0.026820
			CHANNELS 3 Zrotation Yrotation Xrotation
			JOINT chest
			{
				OFFSET -0.002265 0.056032 0.002855
				CHANNELS 3 Zrotation Yrotation Xrotation
				JOINT lowerneck
				{
					OFFSET -0.013390 0.211636 -0.033468
					CHANNELS 3 Zrotation Yrotation Xrotation
					JOINT upperneck
					{
						OFFSET 0.010113 0.088937 0.050410
						CHANNELS 3 Zrotation Yrotation Xrotation
						End Site
						{
							OFFSET 0.000000 0.000000 0.000000
						}
					}
				}
				JOINT lclavicle
				{
					OFFSET 0.071702 0.114000 -0.018898
					CHANNELS 3 Zrotation Yrotation Xrotation
					JOINT lshoulder
					{
						OFFSET 0.122921 0.045205 -0.019046
						CHANNELS 3 Zrotation Yrotation Xrotation
						JOINT lelbow
						{
							OFFSET 0.255332 -0.015649 -0.022946
							CHANNELS 3 Zrotation Yrotation Xrotation
							JOINT lwrist
							{
								OFFSET 0.265709 0.012698 -0.007375
								CHANNELS 3 Zrotation Yrotation Xrotation
								End Site
								{
									OFFSET 0.000000 0.000000 0.000000
								}
							}
						}
					}
				}
				JOINT rclavicle
				{
					OFFSET -0.082954 0.112472 -0.023707
					CHANNELS 3 Zrotation Yrotation Xrotation
					JOINT rshoulder
					{
						OFFSET -0.113228 0.046853 -0.008472
						CHANNELS 3 Zrotation Yrotation Xrotation
						JOINT relbow
						{
							OFFSET -0.260127 -0.014369 -0.031269
							CHANNELS 3 Zrotation Yrotation Xrotation
							JOINT rwrist
							{
								OFFSET -0.269108 0.006794 -0.006027
								CHANNELS 3 Zrotation Yrotation Xrotation
								End Site
								{
									OFFSET 0.000000 0.000000 0.000000
								}
							}
						}
					}
				}
			}
		}
	}
}
MOTION
Frames: 7
Frame Time: 0.033333
0.616169 0.865894 0.232945 87.920864 -0.723129 -11.584666 21.901230 14.398840 9.934554 -1.249517 -2.553865 3.172347 -17.558709 -0.358862 20.561947 0.000000 -0.000000 0.000000 -20.164235 -20.343164 6.835129 -1.824634 -9.835382 6.979634 15.966260 1.877625 12.762612 0.000000 -0.000000 0.000000 1.337649 1.058203 19.907248 -3.708542 -1.394716 -7.307764 1.748068 3.615860 1.068876 -2.282314 -0.545784 0.562937 11.011719 9.522737 4.584768 -6.703704 4.315833 -8.826906 -31.750041 -4.437729 -22.968451 103.619254 -43.675616 -95.163148 22.223836 -10.266717 -19.819351 -3.326962 -0.322230 -9.855763 57.013608 -14.156920 -7.415432 -134.578106 54.398250 -130.250286 -13.089775 23.817035 -21.578542 
0.616401 0.864731 0.233163 87.939670 -0.440867 -11.824887 22.357791 15.452691 9.439080 -0.857179 -1.418182 4.395103 -17.822242 -0.106492 18.348100 0.000000 -0.000000 0.000000 -20.598617 -20.979847 7.301511 -1.806566 -10.612781 6.970131 16.668978 2.163632 13.112921 0.000000 -0.000000 0.000000 2.199226 1.848188 20.281582 -4.400795 -1.178954 -7.128949 1.357684 3.530593 0.890879 -2.261081 -1.586908 1.777333 11.089411 9.037664 3.319595 -7.092674 2.530183 -9.965252 -28.985497 -5.287936 -26.725185 98.381084 -39.763425 -89.149261 18.520368 -9.503608 -12.996415 -3.603085 -1.239243 -10.611599 56.936586 -16.389735 -10.739883 -133.364594 52.908197 -129.837133 -16.186950 22.802107 -24.590752 
0.615036 0.864702 0.233357 87.860366 -0.690476 -11.872742 22.865673 16.493408 9.606593 -0.705394 -0.038348 4.630388 -18.480876 0.045530 15.527591 0.000000 -0.000000 0.000000 -20.517989 -20.898852 7.114014 -1.813955 -10.640150 7.327943 17.233961 2.663320 13.130264 0.000000 -0.000000 0.000000 2.540298 2.423601 20.460317 -4.603134 -0.844979 -7.056100 1.330655 3.439386 0.721420 -1.668044 -1.298744 2.357778 10.836598 8.664702 2.284266 -7.485833 1.949975 -10.365513 -28.580111 -5.034031 -27.169309 98.039664 -40.064447 -86.740272 13.770122 -11.341999 -12.147323 -3.693277 -2.182579 -11.129824 55.968637 -17.309356 -12.550535 -131.481366 52.044229 -128.714890 -20.112147 21.633215 -27.075306 
0.613067 0.864273 0.233455 88.012312 -0.727532 -11.932394 22.757390 16.516846 10.119952 -0.807564 -0.045424 3.870153 -17.214157 0.943652 15.066577 0.000000 -0.000000 0.000000 -20.701438 -21.075399 7.177595 -1.551542 -9.981205 7.338135 17.122387 2.673976 12.101277 0.000000 -0.000000 0.000000 2.745090 2.715538 20.608814 -4.879475 -0.555380 -7.643962 1.094412 3.288114 1.240568 -1.810299 -1.482998 2.567664 10.870653 9.191599 1.092569 -7.183622 1.946129 -10.015062 -29.104228 -5.426325 -24.317906 98.781171 -41.948921 -89.174691 21.153387 -9.776297 -18.677862 -3.900915 -3.212517 -12.358940 55.607462 -17.973826 -12.759494 -129.341565 51.207995 -127.983139 -23.678580 20.878917 -28.450444 
0.611377 0.865007 0.233571 88.193620 -0.661961 -12.192147 22.604511 16.715010 10.472671 -0.870988 -0.652244 3.878480 -16.762781 1.305239 14.392009 0.000000 -0.000000 0.000000 -20.985445 -21.141177 7.527236 -1.356747 -9.074451 7.135994 17.285228 2.447017 11.396987 0.000000 -0.000000 0.000000 2.956112 2.715319 20.447891 -5.135466 -0.628385 -6.913350 0.748295 3.040035 1.387251 -1.610990 -1.166382 2.118805 10.683781 10.100040 0.059202 -8.011006 1.467446 -9.776734 -28.889339 -5.118407 -23.074420 98.266560 -43.521330 -88.486640 27.701176 -8.403764 -16.583131 -3.514327 -3.447893 -13.394810 55.121832 -17.737015 -13.109445 -127.416913 50.397759 -127.122361 -26.165126 20.617600 -28.518812 
0.610001 0.866317 0.233978 88.313997 -0.745046 -12.394659 22.480626 16.442422 10.989811 -1.038542 -0.794298 3.710972 -16.546414 1.091715 13.664853 0.000000 -0.000000 0.000000 -21.122287 -20.728285 7.903023 -1.166163 -8.626493 6.885420 16.819704 2.617638 11.065332 0.000000 -0.000000 0.000000 2.861039 2.537712 20.522456 -5.113595 -0.833577 -6.496362 0.769168 2.821896 1.496171 -1.505744 -1.206539 2.059303 9.563306 10.752069 -0.937457 -8.634644 1.865410 -9.278614 -29.788082 -4.219072 -21.625806 99.096524 -45.392167 -90.198761 29.485726 -10.245057 -18.292027 -3.253161 -3.429013 -13.906011 54.609923 -17.027175 -12.862863 -125.732437 49.349009 -126.397533 -26.733454 21.289446 -27.607572 
0.608898 0.866017 0.233226 88.532951 -0.524594 -12.308632 22.055346 16.313953 10.791714 -1.084911 -1.633287 3.773997 -16.677629 0.671763 13.262992 0.000000 -0.000000 0.000000 -21.276813 -20.737427 7.874815 -1.251168 -8.939394 6.969015 17.082715 2.869930 10.093941 0.000000 -0.000000 0.000000 3.000861 2.596921 20.678843 -5.378638 -0.910860 -6.455111 0.435025 2.671907 1.242222 -1.109958 -0.869560 2.105810 9.372083 10.544492 -0.982503 -9.297418 1.339951 -9.208632 -29.585133 -3.513071 -19.968849 99.238457 -46.825599 -89.634875 27.455073 -11.200333 -18.988410 -2.733606 -3.586831 -14.273252 54.128053 -17.284553 -13.570533 -125.417869 49.040492 -126.320231 -26.120567 20.823986 -28.300803 
